<svg xmlns:rdf="http://www.w3.org/1999/02/22-rdf-syntax-ns#" xmlns="http://www.w3.org/2000/svg" xml:space="preserve" overflow="visible" height="50" width="243.84" version="1.1" enable-background="new 0 0 266 100" xmlns:cc="http://creativecommons.org/ns#" xmlns:dc="http://purl.org/dc/elements/1.1/" viewBox="0 0 243.84169 50"><g fill="none" transform="translate(-28.790039,-21.564453)"><rect height="100" width="266" y="0" x="0" fill="none"/></g><g transform="translate(-28.790039,-21.564453)"><path fill="#ccc" d="m158.93,45.863c-2.0874,0-3.5922,0.68438-5.1174,1.3819v15.778c1.4613,0.13939,2.2988,0.13939,3.6858,0.13939,5.01,0,5.6967-2.2942,5.6967-5.4979v-7.5362c0-2.3651-0.78493-4.2651-4.2651-4.2651zm-33.271-0.86091c-3.4756,0-4.2697,1.9086-4.2697,4.2714v1.3276h8.5342v-1.3276c0-2.3628-0.79292-4.2714-4.2645-4.2714zm-64.459,16.424c0,1.8692,0.88204,2.8404,2.8289,2.8404,2.0886,0,3.3248-0.68096,4.849-1.3802v-3.743h-4.5667c-2.1611,0-3.1111,0.40218-3.1111,2.2828zm130.09-15.563c-3.4813,0-4.6879,1.9001-4.6879,4.2651v8.6331c0,2.3719,1.2065,4.2777,4.6879,4.2777,3.4722,0,4.6879-1.9058,4.6879-4.2777v-8.6331c0-2.3651-1.2157-4.2651-4.6879-4.2651zm-147.15,25.242h-10.234v-24.773h-5.1146v-8.5365h5.1146v-5.1255c0-6.9644,2.8866-11.106,11.09-11.106h6.8301v8.5382h-4.2691c-3.194,0-3.4042,1.1928-3.4042,3.4196l-0.01257,4.2731h7.7339l-0.9049,8.5365h-6.829v24.773zm34.978,0.06398h-8.5293l-0.36972-2.157c-3.8949,2.1571-7.3711,2.5067-9.6642,2.5067-6.2554,0-9.5859-4.1794-9.5859-9.9584,0-6.8187,3.8852-9.2523,10.836-9.2523h7.0746v-1.4739c0-3.4796-0.39875-4.5022-5.751-4.5022h-8.7513l0.85577-8.5365h9.5659c11.744,0,14.319,3.7098,14.319,13.107v20.266zm29.003-24.211c-5.3083-0.90946-6.8324-1.1094-9.3866-1.1094-4.5879,0-5.9744,1.0123-5.9744,4.9078v7.3694c0,3.8961,1.3865,4.9129,5.9744,4.9129,2.5542,0,4.0783-0.20337,9.3866-1.1174v8.3269c-4.6496,1.042-7.6785,1.3162-10.239,1.3162-10.988,0-15.356-5.779-15.356-14.126v-5.9801c0-8.3549,4.3679-14.144,15.356-14.144,2.5604,0,5.5893,0.27535,10.239,1.3219v8.3217zm32.029,10.48h-18.769v0.68781c0,3.8961,1.3876,4.9129,5.9744,4.9129,4.1234,0,6.6399-0.20337,11.938-1.1174v8.3269c-5.11,1.042-7.7727,1.3162-12.787,1.3162-10.989,0-15.359-5.779-15.359-14.126v-6.8379c0-7.3037,3.2425-13.287,14.503-13.287s14.499,5.9132,14.499,13.287v6.837zm33.27,0.15767c0,8.0686-2.3056,13.953-16.276,13.953-5.0443,0-8.0035-0.44331-13.571-1.3002v-46.121l10.231-1.7075v16.133c2.2108-0.82149,5.0729-1.2385,7.6779-1.2385,10.233,0,11.937,4.5873,11.937,11.959v8.3223zm32.798,0.17595c0,6.9604-2.8735,13.711-14.896,13.711-12.029,0-14.956-6.7501-14.956-13.711v-6.7204c0-6.9638,2.9272-13.715,14.956-13.715,12.023,0,14.896,6.7513,14.896,13.715v6.7204zm32.775,0c0,6.9604-2.8769,13.711-14.898,13.711-12.029,0-14.956-6.7501-14.956-13.711v-6.7204c0-6.9638,2.9272-13.715,14.956-13.715,12.021,0,14.898,6.7513,14.898,13.715v6.7204zm33.635,13.333h-11.091l-9.3792-15.657v15.657h-10.235v-46.977l10.235-1.7075v30.242l9.3792-14.867h11.091l-10.239,16.224,10.239,17.086zm-48.567-25.242c-3.4756,0-4.6822,1.9001-4.6822,4.2651v8.6331c0,2.3719,1.2065,4.2777,4.6822,4.2777,3.471,0,4.6993-1.9058,4.6993-4.2777v-8.6331c0-2.3651-1.2282-4.2651-4.6993-4.2651z"/></g></svg>
