<svg xmlns:rdf="http://www.w3.org/1999/02/22-rdf-syntax-ns#" xmlns="http://www.w3.org/2000/svg" version="1.1" xmlns:cc="http://creativecommons.org/ns#" xmlns:dc="http://purl.org/dc/elements/1.1/" viewBox="0 0 165 49" style="fill:#ccc">




 <g transform="translate(0,-1003.3622)">
  <g transform="matrix(1.0175371,0,0,1.015544,-440.62536,391.59215)">
   <path d="m433.03,602.41,0,48.25,72.062,0,18-24.125-18-24.125-72.062,0zm28.28,12.58c2.4578,0.00002,4.2863,0.21124,5.5,0.65625,1.2238,0.44505,2.2322,1.1531,3.0312,2.0938,0.80912,0.93054,1.4079,2.095,1.8125,3.5312l-6.625,1.1875c-0.2731-0.83947-0.74883-1.4924-1.4062-1.9375-0.64733-0.44501-1.4573-0.65623-2.4688-0.65625-1.507,0.00002-2.7248,0.54188-3.625,1.5938-0.89007,1.0418-1.3125,2.6719-1.3125,4.9375,0,2.4072,0.44356,4.1246,1.3438,5.1562,0.91028,1.0317,2.163,1.5625,3.7812,1.5625,0.76868,0,1.5208-0.12123,2.2188-0.34375,0.69787-0.22251,1.4748-0.58893,2.375-1.125v-2.0938h-4.5938v-4.625h10.625v9.4688c-2.033,1.3857-3.8386,2.338-5.4062,2.8438-1.5576,0.4956-3.4183,0.75-5.5625,0.75-2.6398,0-4.7686-0.47482-6.4375-1.375-1.6588-0.90017-2.9546-2.2199-3.875-4-0.9103-1.7801-1.375-3.8189-1.375-6.125,0-2.4274,0.49868-4.5535,1.5-6.3438,1.0013-1.8003,2.4744-3.1632,4.4062-4.0938,1.507-0.7181,3.5449-1.0625,6.0938-1.0625zm25.375,0c3.7018,0.00002,6.5598,0.97624,8.5625,2.9688,2.0026,1.9824,3,4.7633,3,8.3438-0.00002,2.5994-0.43258,4.7374-1.3125,6.4062-0.86985,1.6588-2.1225,2.9757-3.7812,3.9062-1.6486,0.92041-3.7196,1.375-6.1875,1.375-2.5084,0-4.5701-0.41972-6.2188-1.2188-1.6385-0.79903-2.9785-2.0517-4-3.7812-1.0216-1.7295-1.5312-3.9006-1.5312-6.5,0-3.631,1.0084-6.4459,3.0312-8.4688,2.0229-2.0228,4.8267-3.0312,8.4375-3.0312zm0,5.1875c-1.3857,0.00001-2.5043,0.48768-3.3438,1.4688-0.8395,0.98111-1.25,2.6094-1.25,4.875-0.00001,2.2454,0.42062,3.8627,1.25,4.8438,0.83948,0.9811,1.97,1.4688,3.4062,1.4688,1.4767,0,2.6283-0.47664,3.4375-1.4375,0.80913-0.96086,1.1875-2.6994,1.1875-5.1875-0.00002-2.0936-0.40041-3.6016-1.25-4.5625-0.8395-0.97096-1.9912-1.4687-3.4375-1.4688z"/>
   <path d="m523.88,602.41,0,48.25,71.312,0,0-48.25-71.312,0zm21.812,12.969,6.875,0,0,22.25-6.875,0,0-22.25zm10.25,0,20.875,0,0,5.5-7,0,0,16.75-6.875,0,0-16.75-7,0,0-5.5z"/>
  </g>
 </g>
</svg>
