<svg xmlns:rdf="http://www.w3.org/1999/02/22-rdf-syntax-ns#" xmlns="http://www.w3.org/2000/svg" enable-background="new 0 0 800 261.953" xml:space="preserve" height="150" viewBox="0 0 458.09613 150" width="458.1" version="1.1" y="0px" x="0px" xmlns:cc="http://creativecommons.org/ns#" xmlns:dc="http://purl.org/dc/elements/1.1/">


<path fill="#ccc"  d="m402.11,132.02c-1.4779,1.0055-3.5542,0.23249-2.7778-2.0717,1.9337-5.8671,9.6217-17.823,9.6217-17.823l21.414-37.98h-14.668c-0.69688,1.1452-2.188,3.7753-2.188,3.7753-0.67856-1.1304-2.7079-3.6442-3.5434-4.187-3.5835-2.2647-8.8412-1.1939-12.468,0.85893-15.769,9.2209-27.275,27.439-36.349,41.646,0,0-9.5519,15.793-14.854,16.967-4.1395,0.33556-3.7123-5.2406-3.5331-6.5399,1.6005-9.3887,5.3174-18.314,9.0623-26.402,7.6164-5.2801,16.309-12.195,24.208-19.779,17.143-16.387,31.595-34.952,33.708-39.101,0,0-2.2865,0.46153-4.9864,0.54456-13.189,18.397-40.177,45.135-48.36,49.115,3.6247-8.7181,27.043-50.331,46.972-70.236l3.1362-3.0183c4.849-4.7356,9.8737-9.5965,13.789-10.393,0.41343-0.041801,0.94597,0,1.4058,0.96544,0.17465,3.6871-1.1979,6.4116-2.7726,9.5124l-2.2069,4.5266s3.1259-0.58694,5.1788-1.2592c2.3821-4.4819,5.0202-9.5124,4.0479-15.504-0.32468-1.928-1.7202-3.3945-3.544-3.73-5.9449-1.1315-12.424,3.2674-17.637,6.8308l-0.21072,0.12483c-26.8,20.983-49.43,51.24-69.22,92.559-1.4338,1.088-6.9739,2.3884-7.9159,1.7591,1.9538-4.0221,4.4138-9.4293,5.6449-15.296,0.21301-1.6766,0.41114-3.3939,0.41114-5.07,0-3.6069-0.8658-7.0003-4.0971-9.3463-3.7885-1.8862-8.4708-1.0055-11.628,0.41859-14.143,5.8671-24.713,20.368-32.34,32.31-4.1022,7.5872-8.1925,15.713-9.3251,25.018-0.79766,7.2906,0.82629,11.984,4.9715,14.332,4.2632,2.1777,9.6286-0.0859,11.736-1.1744,14.328-7.5431,24.338-22.671,32.229-36.501,0.3138-0.0412,4.6222-0.16606,7.881-1.0055,0.0435,0,0.0618,0,0.134,0.0441-0.18668,0.62588-1.8708,5.6564-1.8708,5.6564-5.0013,14.667-7.3141,24.642-2.59,30.549,6.7506,8.3402,17.926-0.29203,27.018-11.693-1.9515,13.662,5.129,15.8,10.526,14.753,6.1998-1.6755,13.108-8.2984,16.315-11.692-1.0296,3.9803-0.74956,11.105,4.8902,11.817,3.8658,0.71463,6.7586-1.388,10.106-3.1906,12.007-6.5382,26.381-28.325,30.112-34.623h-4.893c-5.3048,8.0172-12.055,18.529-20.547,23.518zm-107.78-1.459c-0.76158-1.1315-1.0141-2.3689-1.0393-3.7066-0.14601-8.2171,8.6947-22.933,14.935-30.95h0.0132c2.6152,5.7262,8.5372,9.407,12.112,10.958-4.4401,9.8909-19.668,31.073-26.021,23.698zm28.527-28.12c-0.42316,0.2949-7.8907-2.2206-9.3337-9.135-1.2243-5.953,2.8751-10.604,6.8411-12.949,1.7024-1.3416,4.2666-1.8015,6.1476-1.1338,1.7459,1.175,2.2189,3.272,2.2189,5.5315,0,1.3857-0.18381,2.8093-0.34586,4.108,0,0-0.0309,0.25253-0.0361,0.29433-1.2443,4.6502-3.1483,9.2186-5.492,13.284zm59.894,25.48c-0.006,0-1.4167,1.2569-1.4167,1.2569-2.0145,1.8009-4.0874,3.7289-6.5897,2.7646-0.69115-0.25138-1.1773-1.1722-1.2941-1.8868-0.11395-5.1547,2.2074-9.931,4.4584-14.582l0.5772-1.2162c6.4752-10.812,14.002-23.551,25.056-32.393,1.8627-1.3439,3.8841-2.4731,6.0177-1.5925,0.49074,0.45981,1.0622,1.2569,1.0622,2.0523,0,0.25252-0.22389,0.92249-0.3533,1.1309-3.087,4.9892-6.0274,10.227-8.8865,15.255-5.5876,9.9327-11.384,20.199-18.631,29.21zm-144.13-89.851-13.745,0-7.7533,12.598,13.742,0zm198.03-20.872c-10.478,5.9518-21.34,9.8061-34.489,8.4656-3.6442,4.108-7.1921,8.3402-10.462,12.698,18.455,4.6938,38.02-5.7411,48.932-15.672,11.543-10.016,17.462-22.629,17.462-22.629s-8.6523,9.8892-21.442,17.138zm-153.51,59.969c-1.3955-3.0166-4.7087-4.9446-8.2394-4.7356-11.466,1.0485-22.68,10.477-28.569,24.012-3.0899,6.9573-4.7762,12.698-5.882,21.833,3.5651-4.1057,10.837-10.852,19.09-14.541,0,0,1.1229-8.7582,6.8491-16.553,2.1668-3.2279,6.5032-8.4238,11.372-7.0415,4.254,1.4258,2.7589,13.202-2.8952,24.598-4.1836,8.3826-10.585,16.766-17.063,22.548-5.7268,4.8615-14.2,10.728-21.613,6.2026-4.6692-2.7646-7.0507-8.5492-6.5473-16.009,2.2309-21.162,11.864-39.183,25.65-59.717,14.215-19.068,29.884-38.638,50.992-49.075,4.3055-2.1788,8.2927-2.6816,11.739-1.3405,0,0-19.815,10.896-29.26,31.054-2.4027,5.1135-5.7445,12.026-2.3792,18.145,1.7585,3.1843,4.881,3.4363,7.3948,3.2685,11.578-2.6827,19.058-13.494,25.17-23.384,3.5434-7.5013,6.6928-14.961,6.6928-23.259,0-1.0055-0.0521-2.346-0.13742-3.3527,5.5315-2.9324,16.874,2.263,16.874,2.263,8.8636,2.9347,27.737,17.393,34.103,20.158,3.1053-3.6035,8.2085-9.0508,11.082-11.775l-4.1595-2.5567c-6.6596-4.065-13.699-7.9211-20.628-11.734-15.735-8.5899-28.543-5.5733-35.062-3.2261-2.5619,0.92135-4.9034,1.7179-4.9034,1.7179-4.8375-5.2801-12.771-4.7785-18.617-3.3527-21.023,6.0343-40.542,20.743-61.468,46.265-15.385,19.99-24.928,37.256-30.015,54.312-3.9207,11.482-5.1124,28.37,4.4573,38.387,8.1364,8.5046,18.925,6.6624,26.544,3.6041,16.507-8.1301,31.343-25.648,38.735-45.806,1.7837-5.9919,3.7638-14.457,0.6923-20.912zm37.957-63.153c-2.1851,25.061-21.665,39.771-26.485,40.943-2.9209,0.58579-7.905-0.71234-3.4558-11.23,6.5525-14.166,17.739-26.192,29.742-32.353,0.29203,1.0479,0.28459,1.7167,0.1987,2.6398zm-217.94,23.594c-8.683-5.7-26.143,5.196-40.127,23.886-12.787,16.765-18.309,36.249-12.3,45.257,8.9392,10.602,25.534-4.8192,32.591-13.073l0.91047-0.96486c4.7991-5.1547,8.5068-11.357,12.095-17.309,0,0,3.2983-5.4479,3.4558-5.6999,2.0385-0.37564,4.4939-0.96258,7.2608-1.7591-0.0395,0.12483-10.586,17.852-9.5101,26.651,0.33498,2.6844,0.07902,12.491,9.6532,15.465,12.76,2.1387,22.949-7.7527,31.938-16.553,0,0,1.5318-1.4653,2.3981-2.3019-0.21931,0.87783-0.50505,2.0488-0.50505,2.0488-3.7358,12.992,1.2998,15.717,4.4498,16.723,9.5198,2.7675,20.893-11.063,20.929-11.063-0.2949,4.3565-1.1573,7.9606,3.4352,10.852,4.3347,1.5518,8.7216-0.8137,12.056-3.0349,12.011-8.465,21.687-21.714,29.503-33.166h-4.9852c-0.059,0-12.302,17.744-20.251,21.601-0.0126,0-1.459,0.74269-2.2928,0.15518-1.0319-0.88069-0.62473-2.7108,0.0126-4.0072,0.0401-0.08475,30.694-53.251,30.694-53.251h-14.474s-1.581,2.5579-1.7098,2.7257c-0.0974-0.0836-0.32926-0.52338-0.49016-0.7341-8.9672-12.404-29.274,6.6756-44.562,28.802-5.886,8.508-13.38,18.087-21.15,25.002,0,0-11.511,10.552-16.43,2.9708-1.798-3.1855-1.2449-7.8426-0.23076-10.901,5.7268-16.302,15.595-31.097,26.824-40.024,3.17-2.4709,6.6155-3.1855,8.3253-2.1376,1.6291,0.96544,1.8919,3.3521,0.86122,4.987-2.6152-0.0836-4.7104,0.71119-6.4139,2.4714-3.3556,3.5205-4.5214,6.9155-3.4546,10.101,5.1828,7.3753,15.519-7.2087,15.019-16.093-0.17865-3.1855-1.8782-6.202-4.4143-7.6702-3.7799-2.2618-9.5462-1.6761-13.278,0.12712-4.9955,1.8851-12.903,8.4639-17.519,13.577-5.811,6.4128-15.777,13.536-18.894,12.739,1.021-2.7251,9.4391-19.948,0.5835-26.401zm69.78,25.479c2.8156-3.8967,11.01-14.332,13.008-16.092,6.7191-5.9112,9.4047-3.3103,9.6372-1.4676-6.2708,11.231-13.672,24.097-20.63,35.664,0.0143-0.04123-2.1777,3.3103-2.1777,3.3103-3.0733,4.6926-6.1677,8.7159-11.215,11.523-0.71979,0.21072-1.9063,0.2949-2.6959-0.29376-0.95055-0.62874-1.3256-1.6766-1.2185-2.7669,0.30235-3.6029,3.9711-14.622,15.292-29.878zm-78.738,6.7466s-0.12598,0.3785-0.18839,0.50219c-0.01603,0-6.3103,10.266-6.3103,10.266-3.7988,5.0717-8.5418,11.443-14.471,14.501-1.7574,0.58694-4.1864,0.96487-5.4244-0.58464-2.6243-3.1437-1.2718-7.5019-0.17293-11.022l0.38881-1.2575c3.1506-8.5481,8.1495-16.093,13.015-23.091,0.0607-0.04123,0.19698-0.08303,0.24623-0.08303,0.01145,0.0418,0.03092,0.0418,0.03951,0.12598,3.0532,5.8659,8.7783,8.5887,13.06,9.8479,0.02577,0,0.05325,0.0418,0.05325,0.12598,0.000573,0.12483-0.06929,0.29375-0.23592,0.66939zm5.9633-12.11c-0.0275,0.0836-2.8035,6.4529-2.8035,6.4529-0.40141,0.33498-1.0359,0.16778-1.7631,0l-1.246-0.21072c-3.9127-1.2145-6.864-3.8131-7.7739-6.9138-1.2552-6.0348,3.9001-10.77,6.1717-12.488,2.1794-1.51,5.5676-2.3059,7.5351-0.75471,1.2134,1.4253,1.6732,3.2685,1.6732,5.2813,0.00057,2.7234-0.84003,5.7823-1.7934,8.6328zm75.746,73.126c-17.05-10.98-40.18-12.91-77.493-2.56-39.772,9.35-53.033,15.34-70.448,3.31-6.691-5.91-9.089-15.42-7.298-29.12,4.154-22.339,15.381-43.836,35.322-67.681,11.132-12.404,21.456-23.049,35.091-27.324,10.446-2.6816,9.476,5.5306,8.207,6.7046-1.3342,0-3.5754,0.21015-5.3076,1.3405-1.4058,1.0903-5.2647,4.6107-5.472,9.3463-0.29891,7.2494,7.2036,5.7405,10.439,1.7602,3.49-4.484,8.64-13.073,4.59-21.079-1.7-2.8494-4.637-4.8186-8.283-5.4892-12.484-0.71349-24.111,5.2378-34.841,11.817-23.467,16.302-42.24,38.891-52.862,63.617-6.1242,14.918-11.663,36.288-3.3607,53.678,6.4219,12.069,19.755,18.479,35.662,17.139,11.156-1.1722,24.647-4.7779,33.72-6.955,9.0732-2.1805,55.518-18.146,70.778,9.6406,0,0,5.0746-9.8508,17.756-10.061,10.426-0.96201,25.467,3.0183,36.421,11.063-3.6493-5.488-13.995-13.576-22.627-19.151zm226.2,1.1664c-1.4779,1.0055-3.5542,0.23249-2.7778-2.0717,1.9337-5.8671,9.6217-17.823,9.6217-17.823l21.414-37.98h-14.668c-0.69688,1.1452-2.188,3.7753-2.188,3.7753-0.67856-1.1304-2.7079-3.6442-3.5434-4.187-3.5835-2.2647-8.8412-1.1939-12.468,0.85893-15.769,9.2209-27.275,27.439-36.349,41.646,0,0-9.5519,15.793-14.854,16.967-4.1395,0.33556-3.7123-5.2406-3.5331-6.5399,1.6005-9.3887,5.3174-18.314,9.0623-26.402,7.6164-5.2801,16.309-12.195,24.208-19.779,17.143-16.387,31.595-34.952,33.708-39.101,0,0-2.2865,0.46153-4.9864,0.54456-13.189,18.397-40.177,45.135-48.36,49.115,3.6247-8.7181,27.043-50.331,46.972-70.236l3.1362-3.0183c4.849-4.7356,9.8737-9.5965,13.789-10.393,0.41343-0.041801,0.94597,0,1.4058,0.96544,0.17465,3.6871-1.1979,6.4116-2.7726,9.5124l-2.2069,4.5266s3.1259-0.58694,5.1788-1.2592c2.3821-4.4819,5.0202-9.5124,4.0479-15.504-0.32468-1.928-1.7202-3.3945-3.544-3.73-5.9449-1.1315-12.424,3.2674-17.637,6.8308l-0.21072,0.12483c-26.81,20.983-49.44,51.24-69.23,92.559-1.4338,1.088-6.9739,2.3884-7.9159,1.7591,1.9538-4.0221,4.4138-9.4293,5.6449-15.296,0.21301-1.6766,0.41114-3.3939,0.41114-5.07,0-3.6069-0.8658-7.0003-4.0971-9.3463-3.7885-1.8862-8.4708-1.0055-11.628,0.41859-14.143,5.8671-24.713,20.368-32.34,32.31-4.1022,7.5872-8.1925,15.713-9.3251,25.018-0.79766,7.2906,0.82629,11.984,4.9715,14.332,4.2632,2.1777,9.6286-0.0859,11.736-1.1744,14.328-7.5431,24.338-22.671,32.229-36.501,0.3138-0.0412,4.6222-0.16606,7.881-1.0055,0.0435,0,0.0618,0,0.134,0.0441-0.18668,0.62588-1.8708,5.6564-1.8708,5.6564-5.0013,14.667-7.3141,24.642-2.59,30.549,6.7506,8.3402,17.926-0.29203,27.018-11.693-1.9515,13.662,5.129,15.8,10.526,14.753,6.1998-1.6755,13.108-8.2984,16.315-11.692-1.0296,3.9803-0.74956,11.105,4.8902,11.817,3.8658,0.71463,6.7586-1.388,10.106-3.1906,12.007-6.5382,26.381-28.325,30.112-34.623h-4.893c-5.3048,8.0172-12.055,18.529-20.547,23.518zm-107.78-1.459c-0.76158-1.1315-1.0141-2.3689-1.0393-3.7066-0.14601-8.2171,8.6947-22.933,14.935-30.95h0.0132c2.6152,5.7262,8.5372,9.407,12.112,10.958-4.4401,9.8909-19.668,31.073-26.021,23.698zm28.527-28.12c-0.42316,0.2949-7.8907-2.2206-9.3337-9.135-1.2243-5.953,2.8751-10.604,6.8411-12.949,1.7024-1.3416,4.2666-1.8015,6.1476-1.1338,1.7459,1.175,2.2189,3.272,2.2189,5.5315,0,1.3857-0.18381,2.8093-0.34586,4.108,0,0-0.0309,0.25253-0.0361,0.29433-1.2443,4.6502-3.1483,9.2186-5.492,13.284zm59.894,25.48c-0.006,0-1.4167,1.2569-1.4167,1.2569-2.0145,1.8009-4.0874,3.7289-6.5897,2.7646-0.69115-0.25138-1.1773-1.1722-1.2941-1.8868-0.11395-5.1547,2.2074-9.931,4.4584-14.582l0.5772-1.2162c6.4752-10.812,14.002-23.551,25.056-32.393,1.8627-1.3439,3.8841-2.4731,6.0177-1.5925,0.49074,0.45981,1.0622,1.2569,1.0622,2.0523,0,0.25252-0.22389,0.92249-0.3533,1.1309-3.087,4.9892-6.0274,10.227-8.8865,15.255-5.5876,9.9327-11.384,20.199-18.631,29.21zm-144.13-89.851-13.745,0-7.7533,12.598,13.742,0zm198.02-20.872c-10.478,5.9518-21.34,9.8061-34.489,8.4656-3.6442,4.108-7.1921,8.3402-10.462,12.698,18.455,4.6938,38.02-5.7411,48.932-15.672,11.543-10.016,17.462-22.629,17.462-22.629s-8.6523,9.8892-21.442,17.138zm-153.51,59.969c-1.3955-3.0166-4.7087-4.9446-8.2394-4.7356-11.466,1.0485-22.68,10.477-28.569,24.012-3.0899,6.9573-4.7762,12.698-5.882,21.833,3.5651-4.1057,10.837-10.852,19.09-14.541,0,0,1.1229-8.7582,6.8491-16.553,2.1668-3.2279,6.5032-8.4238,11.372-7.0415,4.254,1.4258,2.7589,13.202-2.8952,24.598-4.1836,8.3826-10.585,16.766-17.063,22.548-5.7268,4.8615-14.2,10.728-21.613,6.2026-4.6692-2.7646-7.0507-8.5492-6.5473-16.009,2.2309-21.162,11.864-39.183,25.65-59.717,14.215-19.068,29.884-38.638,50.992-49.075,4.3055-2.1788,8.2927-2.6816,11.739-1.3405,0,0-19.815,10.896-29.26,31.054-2.4027,5.1135-5.7445,12.026-2.3792,18.145,1.7585,3.1843,4.881,3.4363,7.3948,3.2685,11.578-2.6827,19.058-13.494,25.17-23.384,3.5434-7.5013,6.6928-14.961,6.6928-23.259,0-1.0055-0.0521-2.346-0.13742-3.3527,5.5315-2.9324,16.874,2.263,16.874,2.263,8.8636,2.9347,27.737,17.393,34.103,20.158,3.1053-3.6035,8.2085-9.0508,11.082-11.775l-4.1595-2.5567c-6.6596-4.065-13.699-7.9211-20.628-11.734-15.735-8.5899-28.543-5.5733-35.062-3.2261-2.5619,0.92135-4.9034,1.7179-4.9034,1.7179-4.8375-5.2801-12.771-4.7785-18.617-3.3527-21.023,6.0343-40.542,20.743-61.468,46.265-15.385,19.99-24.928,37.256-30.015,54.312-3.9207,11.482-5.1124,28.37,4.4573,38.387,8.1364,8.5046,18.925,6.6624,26.544,3.6041,16.507-8.1301,31.343-25.648,38.735-45.806,1.7837-5.9919,3.7638-14.457,0.6923-20.912zm37.957-63.153c-2.1851,25.061-21.665,39.771-26.485,40.943-2.9209,0.58579-7.905-0.71234-3.4558-11.23,6.5525-14.166,17.739-26.192,29.742-32.353,0.29203,1.0479,0.28459,1.7167,0.1987,2.6398zm-217.94,23.594c-8.683-5.7-26.143,5.196-40.127,23.886-12.787,16.765-18.309,36.249-12.3,45.257,8.9392,10.602,25.534-4.8192,32.591-13.073l0.91047-0.96486c4.7991-5.1547,8.5068-11.357,12.095-17.309,0,0,3.2983-5.4479,3.4558-5.6999,2.0385-0.37564,4.4939-0.96258,7.2608-1.7591-0.0395,0.12483-10.586,17.852-9.5101,26.651,0.33498,2.6844,0.07902,12.491,9.6532,15.465,12.76,2.1387,22.949-7.7527,31.938-16.553,0,0,1.5318-1.4653,2.3981-2.3019-0.21931,0.87783-0.50505,2.0488-0.50505,2.0488-3.7358,12.992,1.2998,15.717,4.4498,16.723,9.5198,2.7675,20.893-11.063,20.929-11.063-0.2949,4.3565-1.1573,7.9606,3.4352,10.852,4.3347,1.5518,8.7216-0.8137,12.056-3.0349,12.011-8.465,21.687-21.714,29.503-33.166h-4.9852c-0.059,0-12.302,17.744-20.251,21.601-0.0126,0-1.459,0.74269-2.2928,0.15518-1.0319-0.88069-0.62473-2.7108,0.0126-4.0072,0.0401-0.08475,30.694-53.251,30.694-53.251h-14.474s-1.581,2.5579-1.7098,2.7257c-0.0974-0.0836-0.32926-0.52338-0.49016-0.7341-8.9672-12.404-29.274,6.6756-44.562,28.802-5.886,8.508-13.38,18.087-21.15,25.002,0,0-11.511,10.552-16.43,2.9708-1.798-3.1855-1.2449-7.8426-0.23076-10.901,5.7268-16.302,15.595-31.097,26.824-40.024,3.17-2.4709,6.6155-3.1855,8.3253-2.1376,1.6291,0.96544,1.8919,3.3521,0.86122,4.987-2.6152-0.0836-4.7104,0.71119-6.4139,2.4714-3.3556,3.5205-4.5214,6.9155-3.4546,10.101,5.1828,7.3753,15.519-7.2087,15.019-16.093-0.17865-3.1855-1.8782-6.202-4.4143-7.6702-3.7799-2.2618-9.5462-1.6761-13.278,0.12712-4.9955,1.8851-12.903,8.4639-17.519,13.577-5.811,6.4128-15.777,13.536-18.894,12.739,1.021-2.7251,9.4391-19.948,0.5835-26.401zm69.78,25.479c2.8156-3.8967,11.01-14.332,13.008-16.092,6.7191-5.9112,9.4047-3.3103,9.6372-1.4676-6.2708,11.231-13.672,24.097-20.63,35.664,0.0143-0.04123-2.1777,3.3103-2.1777,3.3103-3.0733,4.6926-6.1677,8.7159-11.215,11.523-0.71979,0.21072-1.9063,0.2949-2.6959-0.29376-0.95055-0.62874-1.3256-1.6766-1.2185-2.7669,0.30235-3.6029,3.9711-14.622,15.292-29.878zm-78.738,6.7466s-0.12598,0.3785-0.18839,0.50219c-0.01603,0-6.3103,10.266-6.3103,10.266-3.7988,5.0717-8.5418,11.443-14.471,14.501-1.7574,0.58694-4.1864,0.96487-5.4244-0.58464-2.6243-3.1437-1.2718-7.5019-0.17293-11.022l0.38881-1.2575c3.1506-8.5481,8.1495-16.093,13.015-23.091,0.0607-0.04123,0.19698-0.08303,0.24623-0.08303,0.01145,0.0418,0.03092,0.0418,0.03951,0.12598,3.0532,5.8659,8.7783,8.5887,13.06,9.8479,0.02577,0,0.05325,0.0418,0.05325,0.12598,0.000573,0.12483-0.06929,0.29375-0.23592,0.66939zm5.9633-12.11c-0.0275,0.0836-2.8035,6.4529-2.8035,6.4529-0.40141,0.33498-1.0359,0.16778-1.7631,0l-1.246-0.21072c-3.9127-1.2145-6.864-3.8131-7.7739-6.9138-1.2552-6.0348,3.9001-10.77,6.1717-12.488,2.1794-1.51,5.5676-2.3059,7.5351-0.75471,1.2134,1.4253,1.6732,3.2685,1.6732,5.2813,0.00057,2.7234-0.84003,5.7823-1.7934,8.6328zm75.746,73.126c-17.05-10.98-40.18-12.91-77.493-2.56-39.772,9.35-53.033,15.34-70.448,3.31-6.691-5.91-9.089-15.42-7.298-29.12,4.154-22.339,15.381-43.836,35.322-67.681,11.132-12.404,21.456-23.049,35.091-27.324,10.446-2.6816,9.476,5.5306,8.207,6.7046-1.3342,0-3.5754,0.21015-5.3076,1.3405-1.4058,1.0903-5.2647,4.6107-5.472,9.3463-0.29891,7.2494,7.2036,5.7405,10.439,1.7602,3.49-4.484,8.64-13.073,4.59-21.079-1.7-2.8494-4.637-4.8186-8.283-5.4892-12.484-0.71349-24.111,5.2378-34.841,11.817-23.467,16.302-42.24,38.891-52.862,63.617-6.1242,14.918-11.663,36.288-3.3607,53.678,6.4219,12.069,19.755,18.479,35.662,17.139,11.156-1.1722,24.647-4.7779,33.72-6.955,9.0732-2.1805,55.518-18.146,70.778,9.6406,0,0,5.0746-9.8508,17.756-10.061,10.426-0.96201,25.467,3.0183,36.421,11.063-3.6493-5.488-13.995-13.576-22.627-19.151z"
/>


</svg>




