<svg xmlns:rdf="http://www.w3.org/1999/02/22-rdf-syntax-ns#" xmlns="http://www.w3.org/2000/svg" version="1.0" xmlns:cc="http://creativecommons.org/ns#" xmlns:dc="http://purl.org/dc/elements/1.1/" viewBox="0 0 79.04 50">
 <path fill="#ccc" d="m25.894,39.704c-0.68113,0-1.1959,0.24157-1.6078,0.43956-0.25739,0.11871-0.47909,0.22565-0.65731,0.22565-0.07917,0-0.1109-0.008-0.17031-0.11486l-0.14253-0.26134c-0.07917-0.1623-0.21775-0.24552-0.40783-0.24552h-0.20204c-0.24147,0-0.41573,0.18612-0.41573,0.44746v6.0903c0,0.28912,0.22961,0.52279,0.51873,0.52279h0.20194c0.28516,0,0.51873-0.23367,0.51873-0.52279v-4.6093c0-0.43164,0.35248-0.78412,0.78413-0.78412h1.7265c0.43165,0,0.78403,0.35248,0.78403,0.78412v4.6093c0,0.28912,0.22971,0.52279,0.51883,0.52279h0.20194c0.28506,0,0.51873-0.23367,0.51873-0.52279v-4.7796c0-1.0929-0.76821-1.8017-1.9602-1.8017h-0.21775m-9.0683,0.0435c-0.9662,0-1.7542,0.75239-1.7542,1.683v3.6352c0,0.94247,0.76426,1.7424,1.6671,1.7424h2.4433c0.30088,0,0.51873-0.20599,0.51873-0.49105v-0.15845c0-0.28507-0.21785-0.49095-0.51873-0.49095h-2.0038c-0.56232,0-0.85934-0.27331-0.85934-0.79995v-1.0613h3.6195c0.57814,0,0.92656-0.35633,0.92656-0.95829v-1.4097c0-0.92667-0.78798-1.6829-1.7542-1.6829h-2.2809l-0.004-0.008zm-0.51083,1.8453c0-0.38806,0.30493-0.69695,0.69695-0.69695h1.9047c0.39211,0,0.69695,0.30493,0.69695,0.69695v1.1326h-3.2986v-1.1326m-5.1755-1.8888c-0.68508,0-1.1959,0.24553-1.6117,0.44351-0.24947,0.11871-0.46726,0.2217-0.63754,0.2217-0.07128,0-0.1386-0.0316-0.17424-0.0871l-0.15443-0.30098c-0.03564-0.0792-0.19404-0.23366-0.39203-0.23366h-0.22967c-0.22176,0-0.40392,0.19808-0.40392,0.44746v9.2861c0,0.28902,0.22572,0.51873,0.51875,0.51873h0.20196c0.28511,0,0.51875-0.23367,0.51875-0.51873v-3.0809c0-0.091,0.0594-0.18612,0.11484-0.18612,0.17028,0,0.38807,0.0951,0.6415,0.2139,0.41183,0.18612,0.92663,0.42364,1.6117,0.42364h0.2138c1.2078,0,1.9602-0.68894,1.9602-1.7978v-3.5441c0-1.0929-0.76821-1.8017-1.9602-1.8017h-0.21775v-0.004zm-2.3681,5.1755,0-3.1956c0-0.43955,0.34452-0.78412,0.78407-0.78412h1.7265c0.43956,0,0.78403,0.34457,0.78403,0.78412v3.1956c0,0.43165-0.34842,0.78413-0.78403,0.78413h-1.7265c-0.43163,0-0.78407-0.35248-0.78407-0.78413m-7.0172-5.132c-0.96618,0-1.7542,0.752-1.7542,1.683v3.6629c0,0.94248,0.7603,1.7107,1.6949,1.7107h2.368c0.93455,0,1.6988-0.76821,1.6988-1.7107v-3.6629c0-0.92666-0.78802-1.683-1.7542-1.683h-2.2532zm-0.51083,5.2033,0-3.3421c0-0.39211,0.32076-0.71286,0.71279-0.71286h1.8453c0.38412,0,0.71278,0.3248,0.71278,0.71286v3.3421c0,0.39212-0.32075,0.71286-0.71278,0.71286h-1.8612c-0.39203,0-0.69695-0.31284-0.69695-0.71286m66.329-9.8244c-0.56617,0-1.0018,0.41968-1.0018,0.97805v9.7137c0,0.55441,0.41969,0.97815,0.98201,0.97815h7.7416c0.59405,0,1.0257-0.41188,1.0257-0.97815v-0.2574c0-0.56232-0.4277-0.97805-1.0257-0.97805h-6.3398v-2.475h4.6451c0.59395,0,1.0256-0.41188,1.0256-0.98211v-0.25343c0-0.56628-0.43165-0.98201-1.0256-0.98201h-4.6451v-2.5423h6.0191c0.59405,0,1.0257-0.41188,1.0257-0.97815v-0.25739c0-0.56628-0.43165-0.97805-1.0257-0.97805h-7.397m-16.517-0.008c-0.56628,0-1.0256,0.45933-1.0256,1.0256v7.3654c0,0.58604-0.47919,1.0613-1.0613,1.0613h-3.3422c-0.58605,0-1.0613-0.47524-1.0613-1.0613v-7.3654c0-0.56627-0.45537-1.0256-1.0256-1.0256h-0.3247c-0.57023,0-1.0256,0.45142-1.0256,1.0256v7.6465c0,1.778,1.3978,3.069,3.3263,3.069h3.5719c1.9284,0,3.3263-1.291,3.3263-3.069v-7.6465c0-0.57418-0.45141-1.0256-1.0256-1.0256h-0.3247m-17.998,0c-1.9166,0-2.9779,1.6235-2.9779,2.7482v1.4414c0,1.6513,1.3503,2.6769,2.6056,2.6769h4.3955c0.55046,0,0.66532,0.36028,0.66532,0.66521v0.93061c0,0.0989-0.01581,0.99398-0.66532,0.99398h-5.9992c-0.59406,0-1.0256,0.41178-1.0256,0.97805v0.25739c0,0.56232,0.4276,0.97816,1.0256,0.97816h6.328c1.6513,0,2.7205-1.1485,2.7205-2.9304v-1.5562c0-1.6712-1.2038-2.4195-2.3958-2.4195h-4.3242c-0.65346,0-0.94643-0.48315-0.94643-0.83158v-0.85539c0-0.54245,0.36028-0.85133,0.99387-0.85133h4.7915c0.58605,0,1.0256-0.41979,1.0256-0.97816v-0.25739c0-0.55441-0.44746-0.97806-1.0454-0.97806h-5.1638m45.828,1.6552-0.0514,0c-0.0594,0-0.1109-0.0515-0.1109-0.1109v-0.79589l-0.17426,0.26529c-0.0198,0.0277-0.0555,0.0395-0.0871,0.0395h-0.0199c-0.0316,0-0.0673-0.0119-0.0871-0.0395l-0.17822-0.26529v0.79589c0,0.0594-0.0515,0.1109-0.11485,0.1109h-0.0514c-0.0594,0-0.1109-0.0515-0.1109-0.1109v-0.95039h-0.53465v0.95039c0,0.0594-0.0555,0.1109-0.11871,0.1109h-0.0475c-0.0594,0-0.11091-0.0515-0.11091-0.1109v-0.95039h-0.39992c-0.0594,0-0.10694-0.0396-0.10694-0.10289v-0.0555c0-0.0634,0.0475-0.103,0.10694-0.103h1.4018c0.0555,0,0.091,0.0198,0.11091,0.0515l0.26529,0.39992,0.2653-0.39992c0.0198-0.0278,0.0515-0.0515,0.1109-0.0515h0.17822v1.2196c0,0.0594-0.0555,0.1109-0.11881,0.1109m-41.041-36.805c-5.688,0.0196-13.004,0.93289-22.601,6.8311l-0.34802,0.21876c-5.5547,3.4657-9.3891,7.7297-11.395,12.698-0.62876,1.5615-1.4828,5.0943-0.64632,8.412,0.36374,1.4525,1.0394,2.9017,1.9489,4.206,2.05,2.9462,5.49,4.9004,9.1976,5.2302,5.2327,0.4675,9.1988-1.8827,10.61-6.2842,0.96906-3.0372,0.0066-7.4909-3.7089-9.7644-3.0217-1.8526-6.2798-1.4236-8.1635-0.17898-1.6368,1.086-2.5636,2.7611-2.5455,4.6137,0.03634,3.2814,2.8702,5.0287,4.9021,5.0313,0.59222,0,1.1791-0.1,1.8495-0.31819,0.23658-0.0729,0.46909-0.15483,0.71592-0.30824l0.0696-0.0497,0.02983-0.0199,0.01989-0.01c0.4544-0.31296,0.72586-0.82837,0.72586-1.3722,0-0.15076-0.01806-0.30403-0.05966-0.45739-0.23898-0.8288-1.0669-1.3291-1.9191-1.1733l-0.10938,0.0199-0.15909,0.0497-0.21875,0.0795c-0.46766,0.11687-0.82223,0.12687-0.8949,0.12927-0.23898-0.0156-1.412-0.36703-1.412-1.6506v-0.0199c0.0029-0.47031,0.19434-0.7952,0.2983-0.97445,0.36109-0.57163,1.3562-1.1337,2.7046-1.0142,1.767,0.1506,3.0336,1.0546,3.8779,2.7642,0.78477,1.59,0.57996,3.5475-0.527,4.9816-1.0991,1.4214-3.0543,2.0235-5.6578,1.7401-2.6242-0.28826-4.8433-1.805-6.0853-4.1563-1.2159-2.2968-1.2786-5.0155-0.16904-7.1095,2.6579-5.0145,7.669-4.97,10.421-4.4944,4.0739,0.70404,7.7717,3.9661,9.4163,8.3027,0.26242,0.69114,0.40019,1.2413,0.51705,1.7401l0.17898,0.7557,4.6038,2.2472,0.05966,0.0398,0.10938-0.01,0.01989-0.12927c-0.02864-0.10396-0.09469-0.20269-0.19887-1.4915-0.08842-1.1406-0.27185-4.2657,1.3026-5.8168,0.61078-0.60537,1.5415-1.1485,2.277-1.3225,3.0164-0.73533,6.9376-0.21702,10.281,3.6492,1.7254,1.9979,2.5695,2.9032,2.9929,3.3111l0.14915,0.13921,0.17898,0.12926c0.13766,0.0779,5.7472,2.6549,5.7472,2.6549l0.10938-0.0298v-0.11932c-0.03633-0.0416-3.5467-4.5886-2.9233-8.3325,0.4937-2.9827,2.8633-2.7107,6.145-2.3367,1.073,0.12211,2.2969,0.25971,3.5597,0.28835,3.5255,0.0208,7.3239-0.6268,9.6649-1.6506,1.5147-0.66245,2.4769-1.0998,3.0824-1.6506,0.21798-0.17925,0.33039-0.47367,0.44745-0.78553l0.0895-0.20881c0.0985-0.25212,0.23572-0.79015,0.2983-1.0838,0.0286-0.1298,0.0415-0.26804-0.0497-0.33807l-0.31819,0.0597c-1.0262,0.61582-3.6001,1.7828-6.0058,1.8296-2.9801,0.0622-8.989-2.9963-9.6152-3.3211l-0.05966-0.0696c-0.15096-0.35869-1.0532-2.4939-1.2429-2.9432,4.3236,2.8475,7.9129,4.4291,10.659,4.6734,3.0556,0.27271,5.4347-1.3958,6.4532-2.108,0.19983-0.13505,0.35545-0.24524,0.41762-0.26847l0.0597-0.10938c-0.169-1.075-1.767-6.2717-2.973-7.5189-0.335-0.3429-0.603-0.6772-1.143-0.9943-4.368-2.5461-14.738-4.0863-15.223-4.1563l-0.07955,0.0298-0.02981,0.0696s-0.04446,2.1472-0.04972,2.3864c-1.0601-0.35344-8.7509-2.8305-15.969-3.0824-1.1472-0.0404-2.3763-0.0841-3.689-0.0795zm31.411,5.0711c2.4472,0.0882,4.3688,2.149,4.2856,4.5938-0.044,1.1822-0.54682,2.2744-1.412,3.0824-0.86513,0.81061-1.9918,1.2321-3.1819,1.1932-2.442-0.0911-4.356-2.1517-4.2756-4.5938,0.0416-1.1848,0.53447-2.2771,1.402-3.0824,0.86514-0.8106,1.997-1.2321,3.1819-1.1932zm0.0795,1.233c-0.84242-0.0317-1.6527,0.27045-2.2671,0.84518-0.61195,0.5749-0.96758,1.3551-0.99434,2.1975-0.058,1.74,1.3052,3.2075,3.0427,3.2713,0.8449,0.0263,1.6498-0.27294,2.2671-0.84518,0.61443-0.57739,0.96799-1.3577,0.99434-2.1975,0.0585-1.7426-1.3027-3.2105-3.0427-3.2714zm0.50711,1.581c0.77325,0,1.402,0.41818,1.402,0.93467,0,0.51379-0.62872,0.93467-1.402,0.93467-0.77369,0-1.3921-0.42088-1.3921-0.93467,0-0.51649,0.61838-0.93467,1.3921-0.93467zm-12.417,27.242c-1.9166,0-2.9779,1.6235-2.9779,2.7481v1.4414c0,1.6513,1.3503,2.6769,2.6056,2.6769h4.3955c0.55046,0,0.66532,0.36028,0.66532,0.66521v0.93061c0,0.099-0.01581,0.99398-0.66532,0.99398h-5.9992c-0.59405,0-1.0256,0.41178-1.0256,0.97805v0.2574c0,0.56231,0.4276,0.97815,1.0256,0.97815h6.328c1.6513,0,2.7205-1.1485,2.7205-2.9304v-1.5562c0-1.6712-1.2038-2.4195-2.3958-2.4195h-4.3242c-0.65346,0-0.94643-0.48315-0.94643-0.83157v-0.85539c0-0.54246,0.36028-0.85134,0.99387-0.85134h4.7915c0.58605,0,1.0256-0.41979,1.0256-0.97816v-0.25739c0-0.55441-0.44746-0.97806-1.0454-0.97806h-5.1638"/>
</svg>
