<svg xmlns:rdf="http://www.w3.org/1999/02/22-rdf-syntax-ns#" xmlns="http://www.w3.org/2000/svg" enable-background="new 0 0 91.026 30.223" xml:space="preserve" height="50" width="150.59" version="1.1" y="0px" x="0px" xmlns:cc="http://creativecommons.org/ns#" xmlns:dc="http://purl.org/dc/elements/1.1/" viewBox="0 0 150.59051 50.000001">
<path transform="translate(-4.0742645e-6,0)" fill="#ccc" d="M111.12,0c-11.706,0.024508-25.249,1.2307-39.526,3.7188-18.042,3.1419-34.282,7.8392-46.719,13.093,0.608-0.125,1.276-0.187,1.969-0.187,2.205,0,5.25,0.546,5.25,3.937v1.094h-3.875v-0.968c0-0.851-0.559-1.407-1.469-1.407-0.974,0-1.299,0.535-1.406,1.031-0.037,0.178-0.075,0.532,0,0.844,0.44,1.823,6.374,2.772,7.031,6.032,0.065,0.332,0.189,1.217,0,2.562-0.369,2.594-2.684,3.562-5.5,3.562-2.928,0-5.656-1.06-5.656-4.531v-1.187h4.187v1.5c0,0.855,0.587,1.406,1.563,1.406,1.035,0,1.369-0.513,1.5-1.031,0.071-0.293,0.121-0.779-0.031-1.157-0.801-2.015-6.321-2.943-7-6.124-0.164-0.781-0.144-1.394-0.032-2.094,0.182-1.112,0.72-1.921,1.5-2.469-15.005,6.632-23.922,14.093-22.812,20.469,2.0482,11.761,37.373,15.422,78.906,8.187,18.486-3.219,35.07-8.059,47.62-13.469-0.62,0.14-1.27,0.188-1.96,0.188-2.77,0-5.24-1.011-5.5-3.844-0.05-0.519-0.03-0.74-0.04-1.031v-6.563c0-0.276,0.04-0.74,0.07-1,0.34-2.91,2.7-3.843,5.47-3.843,2.76,0,5.18,0.928,5.46,3.843,0.06,0.497,0.04,1,0.04,1v0.532h-3.94v-0.875c0,0.001-0.02-0.372-0.06-0.594-0.07-0.344-0.35-1.125-1.54-1.125-1.13,0-1.47,0.738-1.56,1.125-0.05,0.205-0.06,0.499-0.06,0.75v7.125c0,0.197,0,0.415,0.03,0.594,0.07,0.417,0.47,1.125,1.59,1.125,1.13,0,1.53-0.71,1.6-1.125,0.03-0.179,0.03-0.397,0.03-0.594v-2.281h-1.59v-2.25h5.53v4.156c-0.01,0.291-0.02,0.512-0.07,1.031-0.11,1.271-0.7,2.171-1.53,2.782,14.46-6.528,23-13.786,21.91-20.032-1.34-7.7168-17.02-11.953-39.38-11.906zm-33.62,16.719c2.184,0,5.188,0.52,5.188,3.875v1.094h-3.844v-0.938c0-0.844-0.536-1.406-1.438-1.406-0.964,0-1.295,0.531-1.406,1.031-0.038,0.167-0.074,0.501,0,0.813,0.435,1.804,6.284,2.77,6.938,6,0.067,0.325,0.219,1.196,0.031,2.531-0.363,2.571-2.652,3.5-5.438,3.5-2.898,0-5.625-1.033-5.625-4.469v-1.188h4.156v1.5c0,0.836,0.569,1.407,1.532,1.407,1.029,0,1.372-0.547,1.5-1.063,0.069-0.293,0.122-0.751-0.032-1.125-0.792-1.995-6.267-2.914-6.937-6.062-0.16-0.778-0.144-1.373-0.031-2.063,0.405-2.516,2.668-3.437,5.406-3.437zm-39.625,0.406h6.937l2.876,15.563h-4.188l-2.062-14.126h-0.094l-2.125,14.126h-4.219l2.875-15.563zm13.25,0h6.375l1.906,11.906h0.094l1.906-11.906h6.375l0.313,15.563h-3.875l-0.094-13.969h-0.094l-2.593,13.969h-3.969l-2.594-13.969h-0.094l-0.093,13.969h-3.907l0.344-15.563zm35.563,0h3.937v11.531c0,0.202,0.001,0.427,0.031,0.594,0.085,0.382,0.412,1.125,1.5,1.125,1.081,0,1.426-0.743,1.5-1.125,0.032-0.169,0.035-0.392,0.032-0.594v-11.531h3.937v11.156c0.008,0.286-0.018,0.884-0.031,1.031-0.277,2.907-2.577,3.844-5.438,3.844-2.863,0-5.164-0.937-5.437-3.844-0.013-0.147-0.04-0.745-0.031-1.031v-11.156zm15.282,0h5.78l3.56,12.219h0.1l-0.22-12.219h3.87v15.406h-5.56l-3.84-12.625h-0.1l0.22,12.625h-3.81v-15.406z"/></svg>
