<svg xmlns:svg="http://www.w3.org/2000/svg" xmlns="http://www.w3.org/2000/svg" width="5120" height="625" version="1.1" style="fill:#b2dfdb"><g transform="translate(0,-427.36218)"><g transform="matrix(5,0,0,5,0,-4209.6378)"><path d="m0 927.4 0 125 1024 0 0-125-1024 0zm471.3 9.6c7.8 0 13.8 2.5 17.9 7.3 4.1 4.8 6.6 12.6 7.4 23.2l-17.8 1.7c-0.5-4.6-1.5-8-3-10.1-1.5-2.1-3.6-3.2-6.2-3.2-2.2 0-3.9 0.8-5 2.4-1.1 1.5-1.7 3.4-1.7 5.7 0 1.6 0.5 3.1 1.4 4.4 0.9 1.4 3 2.6 6.3 3.8 8.3 3 14.2 6 17.8 9.1 3.6 3 6.2 6.8 7.8 11.3 1.6 4.5 2.5 9.6 2.5 15.1 0 6.6-1.1 12.6-3.2 18.2-2.2 5.5-5.2 9.8-9.1 12.6-3.9 2.8-8.8 4.2-14.7 4.2-10.4 0-17.6-3.4-21.7-10.1-4-6.7-6.3-15.2-6.8-25.5l18-1.9c0.4 4.9 1.2 8.6 2.4 11.2 2 4.1 4.7 6.2 8.3 6.2 2.7 0 4.8-1.1 6.2-3.2 1.5-2.1 2.2-4.6 2.2-7.4 0-2.7-0.7-5-2.1-7.1-1.4-2.1-4.6-4.1-9.7-5.9-8.3-3.1-14.2-7.3-17.7-12.4-3.6-5.2-5.4-11.8-5.4-19.8 0-5.3 0.9-10.2 2.7-14.9 1.8-4.7 4.6-8.4 8.3-11 3.7-2.7 8.7-4.1 15.1-4.1zm100.8 0c6.8 0 11.8 1 15.2 3.1 3.4 2 6.2 5.3 8.4 9.6 2.2 4.3 3.9 9.7 5 16.3l-18.2 5.4c-0.8-3.9-2-6.8-3.8-8.9-1.8-2-4.1-3.1-6.9-3.1-4.2 0-7.5 2.4-9.9 7.3-2.5 4.8-3.7 12.4-3.7 22.8 0 11.1 1.2 19 3.7 23.7 2.5 4.7 6 7.1 10.5 7.1 2.1 0 4.1-0.5 6.1-1.5 1.9-1 4.1-2.8 6.6-5.2l0-9.6-12.7 0 0-21.3 29.3 0 0 43.6c-5.6 6.4-10.6 10.8-14.9 13.1-4.3 2.3-9.4 3.4-15.3 3.4-7.3 0-13.2-2.1-17.8-6.2-4.6-4.1-8.1-10.3-10.7-18.5-2.7-8.2-4-17.6-4-28.2 0-11.2 1.4-20.9 4.2-29.1 2.8-8.3 6.8-14.6 12.1-18.8 4.2-3.3 9.8-5 16.8-5zm417.7 0c7.8 0 13.8 2.5 17.9 7.3 4.1 4.8 6.6 12.6 7.4 23.2l-17.8 1.7c-0.5-4.6-1.5-8-3-10.1-1.5-2.1-3.6-3.2-6.2-3.2-2.2 0-3.9 0.8-5 2.4-1.1 1.5-1.7 3.4-1.7 5.7 0 1.6 0.5 3.1 1.4 4.4 0.9 1.4 3 2.6 6.3 3.8 8.3 3 14.2 6 17.8 9.1 3.6 3 6.2 6.8 7.8 11.3 1.6 4.5 2.5 9.6 2.5 15.1 0 6.6-1.1 12.6-3.2 18.2-2.2 5.5-5.2 9.8-9.1 12.6-3.9 2.8-8.8 4.2-14.7 4.2-10.4 0-17.6-3.4-21.7-10.1-4-6.7-6.3-15.2-6.8-25.5l18-1.9c0.4 4.9 1.2 8.6 2.4 11.2 2 4.1 4.7 6.2 8.3 6.2 2.7 0 4.8-1.1 6.3-3.2 1.5-2.1 2.2-4.6 2.2-7.4 0-2.7-0.7-5-2.1-7.1-1.4-2.1-4.6-4.1-9.7-5.9-8.3-3.1-14.2-7.3-17.7-12.4-3.6-5.2-5.3-11.8-5.3-19.8 0-5.3 0.9-10.2 2.7-14.9 1.8-4.7 4.6-8.4 8.3-11 3.7-2.7 8.7-4.1 15.1-4.1zM7 938.7l18 0 6.5 57.2 9.4-57.2 17.9 0 9.5 57.2 6.5-57.2 17.9 0-13.5 102.4-18.6 0-10.7-64.5-10.7 64.5-18.6 0L7 938.7zm91.9 0 50.8 0 0 21.9-31.8 0 0 16.3 29.5 0 0 20.9-29.5 0 0 20.2 32.7 0 0 23.2-51.7 0 0-102.4zm90.8 0 31.6 0c5.9 0 10.3 0.8 13.4 2.5 3.1 1.7 5.6 4.8 7.5 9.4 1.9 4.5 2.8 10 2.8 16.6 0 5.7-0.7 10.6-2.2 14.7-1.4 4.1-3.4 7.4-6 10-1.6 1.6-3.8 3-6.7 4 2.3 1.3 3.9 2.5 4.9 3.8 0.7 0.8 1.7 2.6 3 5.4 1.3 2.7 2.2 4.9 2.7 6.4l9.2 29.7-21.4 0-10.1-31.3c-1.3-4.1-2.4-6.7-3.4-7.9-1.4-1.6-2.9-2.4-4.7-2.4l-1.7 0 0 41.5-19 0 0-102.4zm66.3 0 50.8 0 0 21.9-31.7 0 0 16.3 29.5 0 0 20.9-29.5 0 0 20.2 32.7 0 0 23.2-51.7 0 0-102.4zm62.2 0 28.2 0c5.5 0 10 1.3 13.4 3.8 3.4 2.5 6.3 6.1 8.5 10.8 2.2 4.7 3.8 10.2 4.8 16.4 1 6.2 1.5 12.8 1.5 19.8 0 10.9-0.7 19.4-2.2 25.5-1.5 6-3.5 11.1-6.2 15.1-2.6 4.1-5.5 6.8-8.5 8.1-4.2 1.9-7.9 2.8-11.3 2.8l-28.2 0 0-102.4zm66.3 0 50.7 0 0 21.9-31.7 0 0 16.3 29.5 0 0 20.9-29.5 0 0 20.2 32.7 0 0 23.2-51.7 0 0-102.4zm124.5 0 19 0 0 102.4-19 0 0-102.4zm104.1 0 17.7 0 23.1 56.6 0-56.6 17.8 0 0 102.4-17.8 0-22.9-56.2 0 56.2-17.8 0 0-102.4zm99.7 0 24.9 0 9.6 62.3 9.6-62.3 24.8 0 0 102.4-15.5 0 0-78.1-12.2 78.1-14 0-11.9-78.1 0 78.1-15.5 0 0-102.4zm81.7 0 19 0 0 102.4-19 0 0-102.4zm32.6 0 17.7 0 23.1 56.6 0-56.6 17.8 0 0 102.4-17.8 0-23-56.2 0 56.2-17.8 0 0-102.4zm71.5 0 28.1 0c5.5 0 10 1.3 13.4 3.8 3.4 2.5 6.2 6.1 8.5 10.8 2.2 4.7 3.8 10.2 4.8 16.4 1 6.2 1.5 12.8 1.5 19.8 0 10.9-0.8 19.4-2.3 25.5-1.5 6-3.5 11.1-6.2 15.1-2.6 4.1-5.5 6.8-8.5 8.1-4.2 1.9-7.9 2.8-11.3 2.8l-28.1 0 0-102.4zm-689.7 20.7 0 20.8 8 0c0.9 0 2.6-0.5 5-1.4 1.3-0.4 2.3-1.5 3-3.2 0.8-1.7 1.2-3.7 1.2-6 0-3.3-0.6-5.8-1.9-7.6-1.3-1.8-3.6-2.7-7.1-2.7l-8.3 0zm128.3 2.5 0 56 4.7 0c4 0 6.8-0.7 8.4-2.2 1.7-1.5 3-4.1 3.9-7.7 0.9-3.7 1.4-9.6 1.4-17.8 0-10.8-1-18.3-3.2-22.3-2.1-4-5.7-6-10.6-6l-4.7 0zm580.4 0 0 56 4.7 0c4 0 6.8-0.7 8.4-2.2 1.7-1.5 3-4.1 3.9-7.7 0.9-3.7 1.4-9.6 1.4-17.8 0-10.8-1.1-18.3-3.2-22.3-2.1-4-5.6-6-10.5-6l-4.7 0z"/></g></g></svg>
